<?xml version="1.0" encoding="utf-8"?>
<!-- Generator: Adobe Illustrator 26.0.3, SVG Export Plug-In . SVG Version: 6.00 Build 0)  -->
<svg version="1.1" id="Layer_1" xmlns="http://www.w3.org/2000/svg" xmlns:xlink="http://www.w3.org/1999/xlink" x="0px" y="0px"
	 viewBox="0 0 40 40" style="enable-background:new 0 0 40 40;" xml:space="preserve">
<style type="text/css">
	.st0{fill:#4EE5E1;}
	.st1{fill:#FFFFFF;}
</style>
<g>
	<rect x="3.02" class="st0" width="13.28" height="13.28"/>
</g>
<g>
	
		<rect x="26.09" y="23.07" transform="matrix(0.707 -0.7072 0.7072 0.707 -11.0574 30.9689)" class="st0" width="11.53" height="11.53"/>
</g>
<g>
	<circle class="st0" cx="32.6" cy="6.64" r="6.64"/>
</g>
<g>
	<polygon class="st0" points="10.69,36.23 3.02,36.23 6.86,29.58 10.69,22.94 14.52,29.58 18.36,36.23 	"/>
</g>
<path class="st1" d="M28.83,40l8.15-8.15l-8.15-8.15l-7.44,7.44H10.66l-0.29-0.49l15.49-15.49c1.06,0.72,2.35,1.15,3.73,1.15
	c3.67,0,6.64-2.97,6.64-6.64c0-3.67-2.97-6.64-6.64-6.64c-3.48,0-6.33,2.67-6.61,6.08h-9.69V3.02H0V16.3h13.28v-5.78h9.72
	c0.19,1.43,0.82,2.71,1.76,3.7L9.63,29.36l-1.96-3.4L3.84,32.6L0,39.25h7.67h7.67L11.5,32.6l-0.02-0.04h9.91L28.83,40z M11.85,14.87
	H1.43V4.45h10.43V14.87z M29.59,4.45c2.87,0,5.21,2.34,5.21,5.21c0,2.87-2.34,5.21-5.21,5.21c-2.87,0-5.21-2.34-5.21-5.21
	C24.37,6.79,26.71,4.45,29.59,4.45z M12.86,37.82H7.67H2.47l2.6-4.5l2.6-4.5l2.6,4.5L12.86,37.82z M28.83,25.72l6.13,6.13
	l-6.13,6.13l-6.13-6.13L28.83,25.72z"/>
</svg>
