<?xml version="1.0" encoding="utf-8"?>
<!-- Generator: Adobe Illustrator 16.0.4, SVG Export Plug-In . SVG Version: 6.00 Build 0)  -->
<!DOCTYPE svg PUBLIC "-//W3C//DTD SVG 1.1//EN" "http://www.w3.org/Graphics/SVG/1.1/DTD/svg11.dtd">
<svg version="1.1" id="Layer_1" xmlns="http://www.w3.org/2000/svg" xmlns:xlink="http://www.w3.org/1999/xlink" x="0px" y="0px"
	 width="262px" height="162px" viewBox="0 0 262 162" enable-background="new 0 0 262 162" xml:space="preserve">
<g opacity="0.5">
	<path fill="#FFFFFF" d="M5,160.5c-1.93,0-3.5-1.57-3.5-3.5V5c0-1.93,1.57-3.5,3.5-3.5h252c1.93,0,3.5,1.57,3.5,3.5v152
		c0,1.93-1.57,3.5-3.5,3.5H5z"/>
	<path fill="#082942" d="M257,2c1.654,0,3,1.346,3,3v152c0,1.654-1.346,3-3,3H5c-1.654,0-3-1.346-3-3V5c0-1.654,1.346-3,3-3H257
		 M257,1H5C2.8,1,1,2.8,1,5v152c0,2.2,1.8,4,4,4h252c2.2,0,4-1.8,4-4V5C261,2.8,259.2,1,257,1L257,1z"/>
</g>
<g>
	<g>
		<path fill="#6FCBD0" d="M215.667,30.5c-1.93,0-3.5-1.57-3.5-3.5V15c0-1.93,1.57-3.5,3.5-3.5h32c1.93,0,3.5,1.57,3.5,3.5v12
			c0,1.93-1.57,3.5-3.5,3.5H215.667z"/>
		<path fill="#082942" d="M247.667,12c1.654,0,3,1.346,3,3v12c0,1.654-1.346,3-3,3h-32c-1.654,0-3-1.346-3-3V15c0-1.654,1.346-3,3-3
			H247.667 M247.667,11h-32c-2.2,0-4,1.8-4,4v12c0,2.2,1.8,4,4,4h32c2.2,0,4-1.8,4-4V15C251.667,12.8,249.867,11,247.667,11
			L247.667,11z"/>
	</g>
</g>
<g>
	<g>
		<path fill="#082942" d="M181.324,12c1.654,0,3,1.346,3,3v12c0,1.654-1.346,3-3,3h-32c-1.654,0-3-1.346-3-3V15c0-1.654,1.346-3,3-3
			H181.324 M181.324,11h-32c-2.2,0-4,1.8-4,4v12c0,2.2,1.8,4,4,4h32c2.2,0,4-1.8,4-4V15C185.324,12.8,183.524,11,181.324,11
			L181.324,11z"/>
	</g>
</g>
<g>
	<g>
		<path fill="#082942" d="M114.982,12c1.654,0,3,1.346,3,3v12c0,1.654-1.346,3-3,3h-32c-1.654,0-3-1.346-3-3V15c0-1.654,1.346-3,3-3
			H114.982 M114.982,11h-32c-2.2,0-4,1.8-4,4v12c0,2.2,1.8,4,4,4h32c2.2,0,4-1.8,4-4V15C118.982,12.8,117.183,11,114.982,11
			L114.982,11z"/>
	</g>
</g>
<g>
	<g>
		<path fill="#082942" d="M48.641,12c1.654,0,3,1.346,3,3v12c0,1.654-1.346,3-3,3h-32c-1.654,0-3-1.346-3-3V15c0-1.654,1.346-3,3-3
			H48.641 M48.641,11h-32c-2.2,0-4,1.8-4,4v12c0,2.2,1.8,4,4,4h32c2.2,0,4-1.8,4-4V15C52.641,12.8,50.841,11,48.641,11L48.641,11z"
			/>
	</g>
</g>
<g>
	<g>
		<path fill="#082942" d="M114.982,41.5c1.654,0,3,1.346,3,3v12c0,1.654-1.346,3-3,3h-32c-1.654,0-3-1.346-3-3v-12
			c0-1.654,1.346-3,3-3H114.982 M114.982,40.5h-32c-2.2,0-4,1.8-4,4v12c0,2.2,1.8,4,4,4h32c2.2,0,4-1.8,4-4v-12
			C118.982,42.3,117.183,40.5,114.982,40.5L114.982,40.5z"/>
	</g>
</g>
<g>
	<g>
		<path fill="#082942" d="M48.641,41.5c1.654,0,3,1.346,3,3v12c0,1.654-1.346,3-3,3h-32c-1.654,0-3-1.346-3-3v-12
			c0-1.654,1.346-3,3-3H48.641 M48.641,40.5h-32c-2.2,0-4,1.8-4,4v12c0,2.2,1.8,4,4,4h32c2.2,0,4-1.8,4-4v-12
			C52.641,42.3,50.841,40.5,48.641,40.5L48.641,40.5z"/>
	</g>
</g>
<g>
	<g>
		<path fill="#082942" d="M181.324,71c1.654,0,3,1.346,3,3v12c0,1.654-1.346,3-3,3h-32c-1.654,0-3-1.346-3-3V74c0-1.654,1.346-3,3-3
			H181.324 M181.324,70h-32c-2.2,0-4,1.8-4,4v12c0,2.2,1.8,4,4,4h32c2.2,0,4-1.8,4-4V74C185.324,71.8,183.524,70,181.324,70
			L181.324,70z"/>
	</g>
</g>
<g>
	<g>
		<path fill="#082942" d="M48.641,71c1.654,0,3,1.346,3,3v12c0,1.654-1.346,3-3,3h-32c-1.654,0-3-1.346-3-3V74c0-1.654,1.346-3,3-3
			H48.641 M48.641,70h-32c-2.2,0-4,1.8-4,4v12c0,2.2,1.8,4,4,4h32c2.2,0,4-1.8,4-4V74C52.641,71.8,50.841,70,48.641,70L48.641,70z"
			/>
	</g>
</g>
<g>
	<g>
		<path fill="#082942" d="M114.982,100.5c1.654,0,3,1.346,3,3v12c0,1.654-1.346,3-3,3h-32c-1.654,0-3-1.346-3-3v-12
			c0-1.654,1.346-3,3-3H114.982 M114.982,99.5h-32c-2.2,0-4,1.8-4,4v12c0,2.2,1.8,4,4,4h32c2.2,0,4-1.8,4-4v-12
			C118.982,101.3,117.183,99.5,114.982,99.5L114.982,99.5z"/>
	</g>
</g>
<g>
	<g>
		<path fill="#082942" d="M48.641,100.5c1.654,0,3,1.346,3,3v12c0,1.654-1.346,3-3,3h-32c-1.654,0-3-1.346-3-3v-12
			c0-1.654,1.346-3,3-3H48.641 M48.641,99.5h-32c-2.2,0-4,1.8-4,4v12c0,2.2,1.8,4,4,4h32c2.2,0,4-1.8,4-4v-12
			C52.641,101.3,50.841,99.5,48.641,99.5L48.641,99.5z"/>
	</g>
</g>
<g>
	<g>
		<path fill="#082942" d="M48.641,130c1.654,0,3,1.346,3,3v12c0,1.654-1.346,3-3,3h-32c-1.654,0-3-1.346-3-3v-12
			c0-1.654,1.346-3,3-3H48.641 M48.641,129h-32c-2.2,0-4,1.8-4,4v12c0,2.2,1.8,4,4,4h32c2.2,0,4-1.8,4-4v-12
			C52.641,130.8,50.841,129,48.641,129L48.641,129z"/>
	</g>
</g>
<polyline fill="none" stroke="#082942" stroke-miterlimit="10" points="211.667,21 199,21 199,80 185,80 "/>
<polyline fill="none" stroke="#082942" stroke-miterlimit="10" points="145.334,21 132.668,21 132.668,51 118.668,51 "/>
<polyline fill="none" stroke="#082942" stroke-miterlimit="10" points="145.334,81 132.668,81 132.668,111 118.668,111 "/>
<polyline fill="none" stroke="#082942" stroke-miterlimit="10" points="79.334,109.5 66.666,109.5 66.666,139.5 52.666,139.5 "/>
<polyline fill="none" stroke="#082942" stroke-miterlimit="10" points="79.334,109.501 66.666,109.501 66.666,80 52.666,80 "/>
<line fill="none" stroke="#082942" stroke-miterlimit="10" x1="79.334" y1="21" x2="52.666" y2="21"/>
<line fill="none" stroke="#082942" stroke-miterlimit="10" x1="79.334" y1="50.5" x2="52.666" y2="50.5"/>
<line fill="none" stroke="#082942" stroke-miterlimit="10" x1="79.334" y1="109.5" x2="52.666" y2="109.5"/>
<line fill="none" stroke="#082942" stroke-miterlimit="10" x1="145.334" y1="21" x2="118.668" y2="21"/>
<line fill="none" stroke="#082942" stroke-miterlimit="10" x1="211.667" y1="21" x2="185" y2="21"/>
</svg>
