<?xml version="1.0" encoding="utf-8"?>
<!-- Generator: Adobe Illustrator 16.0.4, SVG Export Plug-In . SVG Version: 6.00 Build 0)  -->
<!DOCTYPE svg PUBLIC "-//W3C//DTD SVG 1.1//EN" "http://www.w3.org/Graphics/SVG/1.1/DTD/svg11.dtd">
<svg version="1.1" id="Layer_1" xmlns="http://www.w3.org/2000/svg" xmlns:xlink="http://www.w3.org/1999/xlink" x="0px" y="0px"
	 width="262px" height="162px" viewBox="0 0 262 162" enable-background="new 0 0 262 162" xml:space="preserve">
<g opacity="0.5">
	<path fill="#FFFFFF" d="M5,160.5c-1.93,0-3.5-1.57-3.5-3.5V5c0-1.93,1.57-3.5,3.5-3.5h252c1.93,0,3.5,1.57,3.5,3.5v152
		c0,1.93-1.57,3.5-3.5,3.5H5z"/>
	<path fill="#082942" d="M257,2c1.654,0,3,1.346,3,3v152c0,1.654-1.346,3-3,3H5c-1.654,0-3-1.346-3-3V5c0-1.654,1.346-3,3-3H257
		 M257,1H5C2.8,1,1,2.8,1,5v152c0,2.2,1.8,4,4,4h252c2.2,0,4-1.8,4-4V5C261,2.8,259.2,1,257,1L257,1z"/>
</g>
<g>
	<g>
		<path fill="#082942" d="M245.291,12c1.654,0,3,1.346,3,3v12c0,1.654-1.346,3-3,3h-32c-1.654,0-3-1.346-3-3V15c0-1.654,1.346-3,3-3
			H245.291 M245.291,11h-32c-2.2,0-4,1.8-4,4v12c0,2.2,1.8,4,4,4h32c2.2,0,4-1.8,4-4V15C249.291,12.8,247.491,11,245.291,11
			L245.291,11z"/>
	</g>
</g>
<g>
	<g>
		<path fill="#082942" d="M178.949,12c1.654,0,3,1.346,3,3v12c0,1.654-1.346,3-3,3h-32c-1.654,0-3-1.346-3-3V15c0-1.654,1.346-3,3-3
			H178.949 M178.949,11h-32c-2.2,0-4,1.8-4,4v12c0,2.2,1.8,4,4,4h32c2.2,0,4-1.8,4-4V15C182.949,12.8,181.149,11,178.949,11
			L178.949,11z"/>
	</g>
</g>
<g>
	<g>
		<path fill="#082942" d="M112.607,12c1.654,0,3,1.346,3,3v12c0,1.654-1.346,3-3,3h-32c-1.654,0-3-1.346-3-3V15c0-1.654,1.346-3,3-3
			H112.607 M112.607,11h-32c-2.2,0-4,1.8-4,4v12c0,2.2,1.8,4,4,4h32c2.2,0,4-1.8,4-4V15C116.607,12.8,114.808,11,112.607,11
			L112.607,11z"/>
	</g>
</g>
<g>
	<g>
		<path fill="#6FCBD0" d="M14.266,30.5c-1.93,0-3.5-1.57-3.5-3.5V15c0-1.93,1.57-3.5,3.5-3.5h32c1.93,0,3.5,1.57,3.5,3.5v12
			c0,1.93-1.57,3.5-3.5,3.5H14.266z"/>
		<path fill="#082942" d="M46.266,12c1.654,0,3,1.346,3,3v12c0,1.654-1.346,3-3,3h-32c-1.654,0-3-1.346-3-3V15c0-1.654,1.346-3,3-3
			H46.266 M46.266,11h-32c-2.2,0-4,1.8-4,4v12c0,2.2,1.8,4,4,4h32c2.2,0,4-1.8,4-4V15C50.266,12.8,48.466,11,46.266,11L46.266,11z"
			/>
	</g>
</g>
<g>
	<g>
		<path fill="#082942" d="M112.607,41.5c1.654,0,3,1.346,3,3v12c0,1.654-1.346,3-3,3h-32c-1.654,0-3-1.346-3-3v-12
			c0-1.654,1.346-3,3-3H112.607 M112.607,40.5h-32c-2.2,0-4,1.8-4,4v12c0,2.2,1.8,4,4,4h32c2.2,0,4-1.8,4-4v-12
			C116.607,42.3,114.808,40.5,112.607,40.5L112.607,40.5z"/>
	</g>
</g>
<g>
	<g>
		<path fill="#6FCBD0" d="M14.266,60c-1.93,0-3.5-1.57-3.5-3.5v-12c0-1.93,1.57-3.5,3.5-3.5h32c1.93,0,3.5,1.57,3.5,3.5v12
			c0,1.93-1.57,3.5-3.5,3.5H14.266z"/>
		<path fill="#082942" d="M46.266,41.5c1.654,0,3,1.346,3,3v12c0,1.654-1.346,3-3,3h-32c-1.654,0-3-1.346-3-3v-12
			c0-1.654,1.346-3,3-3H46.266 M46.266,40.5h-32c-2.2,0-4,1.8-4,4v12c0,2.2,1.8,4,4,4h32c2.2,0,4-1.8,4-4v-12
			C50.266,42.3,48.466,40.5,46.266,40.5L46.266,40.5z"/>
	</g>
</g>
<g>
	<g>
		<path fill="#082942" d="M178.949,71c1.654,0,3,1.346,3,3v12c0,1.654-1.346,3-3,3h-32c-1.654,0-3-1.346-3-3V74c0-1.654,1.346-3,3-3
			H178.949 M178.949,70h-32c-2.2,0-4,1.8-4,4v12c0,2.2,1.8,4,4,4h32c2.2,0,4-1.8,4-4V74C182.949,71.8,181.149,70,178.949,70
			L178.949,70z"/>
	</g>
</g>
<g>
	<g>
		<path fill="#6FCBD0" d="M14.266,89.5c-1.93,0-3.5-1.57-3.5-3.5V74c0-1.93,1.57-3.5,3.5-3.5h32c1.93,0,3.5,1.57,3.5,3.5v12
			c0,1.93-1.57,3.5-3.5,3.5H14.266z"/>
		<path fill="#082942" d="M46.266,71c1.654,0,3,1.346,3,3v12c0,1.654-1.346,3-3,3h-32c-1.654,0-3-1.346-3-3V74c0-1.654,1.346-3,3-3
			H46.266 M46.266,70h-32c-2.2,0-4,1.8-4,4v12c0,2.2,1.8,4,4,4h32c2.2,0,4-1.8,4-4V74C50.266,71.8,48.466,70,46.266,70L46.266,70z"
			/>
	</g>
</g>
<g>
	<g>
		<path fill="#082942" d="M112.607,100.5c1.654,0,3,1.346,3,3v12c0,1.654-1.346,3-3,3h-32c-1.654,0-3-1.346-3-3v-12
			c0-1.654,1.346-3,3-3H112.607 M112.607,99.5h-32c-2.2,0-4,1.8-4,4v12c0,2.2,1.8,4,4,4h32c2.2,0,4-1.8,4-4v-12
			C116.607,101.3,114.808,99.5,112.607,99.5L112.607,99.5z"/>
	</g>
</g>
<g>
	<g>
		<path fill="#6FCBD0" d="M14.266,119c-1.93,0-3.5-1.57-3.5-3.5v-12c0-1.93,1.57-3.5,3.5-3.5h32c1.93,0,3.5,1.57,3.5,3.5v12
			c0,1.93-1.57,3.5-3.5,3.5H14.266z"/>
		<path fill="#082942" d="M46.266,100.5c1.654,0,3,1.346,3,3v12c0,1.654-1.346,3-3,3h-32c-1.654,0-3-1.346-3-3v-12
			c0-1.654,1.346-3,3-3H46.266 M46.266,99.5h-32c-2.2,0-4,1.8-4,4v12c0,2.2,1.8,4,4,4h32c2.2,0,4-1.8,4-4v-12
			C50.266,101.3,48.466,99.5,46.266,99.5L46.266,99.5z"/>
	</g>
</g>
<g>
	<g>
		<path fill="#6FCBD0" d="M14.266,148.5c-1.93,0-3.5-1.57-3.5-3.5v-12c0-1.93,1.57-3.5,3.5-3.5h32c1.93,0,3.5,1.57,3.5,3.5v12
			c0,1.93-1.57,3.5-3.5,3.5H14.266z"/>
		<path fill="#082942" d="M46.266,130c1.654,0,3,1.346,3,3v12c0,1.654-1.346,3-3,3h-32c-1.654,0-3-1.346-3-3v-12
			c0-1.654,1.346-3,3-3H46.266 M46.266,129h-32c-2.2,0-4,1.8-4,4v12c0,2.2,1.8,4,4,4h32c2.2,0,4-1.8,4-4v-12
			C50.266,130.8,48.466,129,46.266,129L46.266,129z"/>
	</g>
</g>
<polyline fill="none" stroke="#082942" stroke-miterlimit="10" points="209.291,21 196.625,21 196.625,80 182.625,80 "/>
<polyline fill="none" stroke="#082942" stroke-miterlimit="10" points="142.959,21 130.292,21 130.292,51 116.292,51 "/>
<polyline fill="none" stroke="#082942" stroke-miterlimit="10" points="142.959,81 130.292,81 130.292,111 116.292,111 "/>
<polyline fill="none" stroke="#082942" stroke-miterlimit="10" points="76.958,109.5 64.291,109.5 64.291,139.5 50.291,139.5 "/>
<polyline fill="none" stroke="#082942" stroke-miterlimit="10" points="76.958,109.501 64.291,109.501 64.291,80.001 50.291,80.001 
	"/>
<line fill="none" stroke="#082942" stroke-miterlimit="10" x1="76.958" y1="21" x2="50.291" y2="21"/>
<line fill="none" stroke="#082942" stroke-miterlimit="10" x1="76.958" y1="50.5" x2="50.291" y2="50.5"/>
<line fill="none" stroke="#082942" stroke-miterlimit="10" x1="76.958" y1="109.5" x2="50.291" y2="109.5"/>
<line fill="none" stroke="#082942" stroke-miterlimit="10" x1="142.959" y1="21" x2="116.292" y2="21"/>
<line fill="none" stroke="#082942" stroke-miterlimit="10" x1="209.291" y1="21" x2="182.625" y2="21"/>
</svg>
