<?xml version="1.0" encoding="UTF-8"?>
<svg width="87px" height="87px" viewBox="0 0 87 87" version="1.1" xmlns="http://www.w3.org/2000/svg">
    <g id="Page-1" stroke="none" stroke-width="1" fill="none" fill-rule="evenodd">
        <g id="503-Error-1" transform="translate(-677.000000, -287.000000)">
            <g id="Group" transform="translate(669.000000, 279.000000)">
                <polygon id="Path" points="0 0 103 0 103 103 0 103"></polygon>
                <path d="M51.5,94.4166667 C27.797125,94.4166667 8.58333333,75.202875 8.58333333,51.5 C8.58333333,27.797125 27.797125,8.58333333 51.5,8.58333333 C75.202875,8.58333333 94.4166667,27.797125 94.4166667,51.5 C94.4166667,75.202875 75.202875,94.4166667 51.5,94.4166667 Z M51.5,45.4315833 L39.3631667,33.2904583 L33.2904583,39.3631667 L45.4315833,51.5 L33.2904583,63.6368333 L39.3631667,69.7095417 L51.5,57.5684167 L63.6368333,69.7095417 L69.7095417,63.6368333 L57.5684167,51.5 L69.7095417,39.3631667 L63.6368333,33.2904583 L51.5,45.4315833 Z"
                      id="Shape" fill="currentColor"></path>
            </g>
        </g>
    </g>
</svg>