<?xml version="1.0" encoding="UTF-8"?>
<svg width="85px" height="81px" viewBox="0 0 85 81" version="1.1" xmlns="http://www.w3.org/2000/svg"
     xmlns:xlink="http://www.w3.org/1999/xlink">
    <desc>Created with sketchtool.</desc>
    <g id="Product-Catalog" stroke="none" stroke-width="1" fill="none" fill-rule="evenodd" opacity="0.15">
        <g id="Landing-Page---Empty-list" transform="translate(-829.000000, -478.000000)" fill="#000000"
           fill-rule="nonzero">
            <g id="box" transform="translate(829.000000, 478.000000)">
                <path d="M75.5495378,28.6953499 L84.5137619,19.7190237 C84.8834074,19.3495286 85.0572055,18.8267808 84.9832766,18.3092281 C84.9099959,17.7916754 84.59677,17.3384107 84.1389286,17.0864528 L73.3621452,11.1608956 C72.5586529,10.7193199 71.5495859,11.0134872 71.1079568,11.8180643 C70.6669764,12.6232907 70.9600989,13.6337199 71.7642396,14.0752957 L80.6020061,18.9345774 L72.9088432,26.637477 L45.2392667,11.4232436 L52.9317813,3.72034381 L60.7079522,7.9964856 C61.5114446,8.43806137 62.52116,8.14454353 62.9621404,7.33931712 C63.4037693,6.53474005 63.1099986,5.52366129 62.3058578,5.08208551 L53.4376116,0.205270838 C52.790408,-0.150587283 51.9862673,-0.0356477495 51.4648728,0.487100162 L42.5,9.46407583 L33.5351272,0.487100162 C33.0130843,-0.0356477495 32.2089435,-0.149937949 31.5623884,0.205270838 L0.861071357,17.0864528 C0.403229993,17.3384107 0.0900041454,17.7910259 0.0167234494,18.3092281 C-0.0572055398,18.8267808 0.11659263,19.3495286 0.486238074,19.7190237 L9.4504622,28.6953499 L0.486238074,37.6710269 C0.11659263,38.0411712 -0.0572055398,38.5632696 0.0167234494,39.0814718 C0.0900041454,39.5990246 0.403229993,40.0522892 0.861071357,40.3035976 L10.1385213,45.4050965 L10.1385213,62.4564151 C10.1385213,63.0635817 10.4686083,63.6220453 10.9997302,63.9142645 L41.7010472,80.7947971 C41.9500715,80.9318155 42.2250357,81 42.5,81 C42.7749643,81 43.0499285,80.9318155 43.2989528,80.7947971 L74.0002698,63.9142645 C74.5313917,63.6220453 74.8614787,63.0635817 74.8614787,62.4564151 L74.8614787,45.4050965 L84.1389286,40.304247 C84.59677,40.0522892 84.9099959,39.5990246 84.9832766,39.0814718 C85.0572055,38.5639189 84.8834074,38.0411712 84.5137619,37.6716762 L75.5495378,28.6953499 Z M42.5,43.6790549 L15.2480579,28.6947006 L42.5,13.7096969 L69.7519421,28.6947006 L42.5,43.6790549 Z M32.0688674,3.72034381 L39.7607333,11.4232436 L12.0911568,26.637477 L4.39864235,18.9345774 L32.0688674,3.72034381 Z M12.0924539,30.7525735 L39.7620302,45.9668069 L32.0688674,53.670356 L4.39864235,38.4561226 L12.0924539,30.7525735 Z M71.5411554,61.4732596 L44.1601616,76.5283959 L44.1601616,59.5348719 C44.1601616,58.6166539 43.41698,57.872469 42.5,57.872469 C41.58302,57.872469 40.8398384,58.6166539 40.8398384,59.5348719 L40.8398384,76.5283959 L13.4588446,61.4732596 L13.4588446,47.2311422 L31.5623884,57.1854291 C31.813358,57.3230967 32.0883223,57.3906318 32.3606926,57.3906318 C32.7906485,57.3906318 33.2160649,57.2230928 33.5351272,56.9035998 L42.5,47.9266241 L51.4648728,56.9035998 C51.7839351,57.2237422 52.2093515,57.3906318 52.6393074,57.3906318 C52.9116777,57.3906318 53.186642,57.3230967 53.4376116,57.1854291 L71.5411554,47.2311422 L71.5411554,61.4732596 Z M52.9317813,53.670356 L45.2386182,45.9661575 L72.9081946,30.7525735 L80.6020061,38.4554733 L52.9317813,53.670356 Z"
                      id="Shape"></path>
                <path d="M67.5,11 C67.8943361,11 68.2798829,10.8394532 68.560547,10.5599611 C68.8394532,10.2810546 69,9.89433605 69,9.5 C69,9.1050782 68.8394532,8.71835945 68.560547,8.4394532 C68.2816407,8.15996105 67.8943361,8 67.5,8 C67.1039062,8 66.7183594,8.15996105 66.4394532,8.4394532 C66.1587891,8.71835945 66,9.1050782 66,9.5 C66,9.89433605 66.1587891,10.2810546 66.4394532,10.5599611 C66.7183594,10.8394532 67.1056641,11 67.5,11 Z"
                      id="Path"></path>
                <path d="M42.5,53 C42.1056641,53 41.7183593,53.1599611 41.4394532,53.4394532 C41.1605468,53.7195313 41,54.1050782 41,54.5 C41,54.8955079 41.1605468,55.2810546 41.4394532,55.5617187 C41.7183593,55.840625 42.1056641,56 42.5,56 C42.8943359,56 43.2816407,55.840625 43.5605468,55.5617187 C43.8394532,55.2810546 44,54.8955079 44,54.5 C44,54.1050782 43.8394532,53.7195313 43.5605468,53.4394532 C43.2816407,53.1599611 42.8943359,53 42.5,53 Z"
                      id="Path"></path>
            </g>
        </g>
    </g>
</svg>