<?xml version="1.0" encoding="UTF-8"?>
<svg width="32px" height="32px" viewBox="0 0 32 32" version="1.1" xmlns="http://www.w3.org/2000/svg"
     xmlns:xlink="http://www.w3.org/1999/xlink">
    <desc>Created with sketchtool.</desc>
    <g id="Symbols" stroke="none" stroke-width="1" fill="none" fill-rule="evenodd">
        <g id="icon/briefcase">
            <g id="Group">
                <polygon id="Path" points="0 0 32 0 32 32 0 32"></polygon>
            </g>
            <g id="Group">
                <polygon id="Path" points="0 0 32 0 32 32 0 32"></polygon>
                <path d="M9.33333333,8 L9.33333333,4 C9.33333333,3.26362033 9.930287,2.66666667 10.6666667,2.66666667 L21.3333333,2.66666667 C22.069713,2.66666667 22.6666667,3.26362033 22.6666667,4 L22.6666667,8 L28,8 C28.7363797,8 29.3333333,8.59695367 29.3333333,9.33333333 L29.3333333,28 C29.3333333,28.7363797 28.7363797,29.3333333 28,29.3333333 L4,29.3333333 C3.26362033,29.3333333 2.66666667,28.7363797 2.66666667,28 L2.66666667,9.33333333 C2.66666667,8.59695367 3.26362033,8 4,8 L9.33333333,8 Z M12,18.6666667 L5.33333333,18.6666667 L5.33333333,26.6666667 L26.6666667,26.6666667 L26.6666667,18.6666667 L20,18.6666667 L20,22.6666667 L12,22.6666667 L12,18.6666667 Z M26.6666667,10.6666667 L5.33333333,10.6666667 L5.33333333,16 L12,16 L12,13.3333333 L20,13.3333333 L20,16 L26.6666667,16 L26.6666667,10.6666667 Z M14.6666667,16 L14.6666667,20 L17.3333333,20 L17.3333333,16 L14.6666667,16 Z M12,5.33333333 L12,8 L20,8 L20,5.33333333 L12,5.33333333 Z"
                      id="Shape" fill="currentColor"></path>
            </g>
        </g>
    </g>
</svg>