<?xml version="1.0" encoding="UTF-8"?>
<svg viewBox="0 0 32 33" version="1.1" xmlns="http://www.w3.org/2000/svg" xmlns:xlink="http://www.w3.org/1999/xlink">
    <desc>Created with sketchtool.</desc>
    <g id="Symbols" stroke="none" stroke-width="1" fill="none" fill-rule="evenodd">
        <g id="icon/call" transform="translate(0.000000, 1.000000)">
            <g id="Group-2">
                <g id="Group">
                    <polygon id="Path" points="0 0 32 0 32 32 0 32"></polygon>
                </g>
                <g id="Group">
                    <polygon id="Path" points="0 0 32 0 32 32 0 32"></polygon>
                    <path d="M12.488,14.2426667 C13.7391145,16.4406376 15.5593624,18.2608855 17.7573333,19.512 L18.936,17.8613333 C19.3282928,17.3120049 20.0692339,17.142516 20.6613333,17.4666667 C22.5470937,18.4972329 24.6296101,19.1170348 26.772,19.2853333 C27.465421,19.3402853 28,19.9190717 28,20.6146667 L28,26.564 C28,27.2478315 27.4829316,27.8209159 26.8026667,27.8906667 C26.096,27.964 25.384,28 24.6666667,28 C13.2533333,28 4,18.7466667 4,7.33333333 C4,6.616 4.036,5.904 4.10933333,5.19733333 C4.17908414,4.51706837 4.75216846,3.99999997 5.436,3.99999997 L11.3853333,3.99999997 C12.0809283,3.99999997 12.6597147,4.53457901 12.7146667,5.228 C12.8829652,7.3703899 13.5027671,9.45290631 14.5333333,11.3386667 C14.857484,11.9307661 14.6879951,12.6717072 14.1386667,13.064 L12.488,14.2426667 Z M9.12533333,13.3666667 L11.6586667,11.5573333 C10.9397101,10.005458 10.4471358,8.3584546 10.196,6.66666667 L6.68,6.66666667 C6.672,6.888 6.668,7.11066667 6.668,7.33333333 C6.66666667,17.2746667 14.7253333,25.3333333 24.6666667,25.3333333 C24.8893333,25.3333333 25.112,25.3293333 25.3333333,25.32 L25.3333333,21.804 C23.6415454,21.5528642 21.994542,21.0602899 20.4426667,20.3413333 L18.6333333,22.8746667 C17.9048821,22.5916223 17.1973422,22.2574567 16.516,21.8746667 L16.4386667,21.8306667 C13.8234382,20.3422926 11.6577074,18.1765618 10.1693333,15.5613333 L10.1253333,15.484 C9.74254329,14.8026578 9.40837773,14.0951179 9.12533333,13.3666667 L9.12533333,13.3666667 Z"
                          id="Shape" fill="currentColor"></path>
                </g>
            </g>
        </g>
    </g>
</svg>