<?xml version="1.0" encoding="UTF-8"?>
<svg width="28px" height="28px" viewBox="0 0 28 28" version="1.1" xmlns="http://www.w3.org/2000/svg">
    <g id="01_Call-Back" stroke="none" stroke-width="1" fill="none" fill-rule="evenodd">
        <g id="4---customer-record/job-history/edit-job-3" transform="translate(-920.000000, -565.000000)">
            <g id="icons" transform="translate(920.000000, 565.000000)">
                <circle id="Oval" fill="#FFFFFF" cx="14" cy="14" r="9.33333333"></circle>
                <path d="M19.4306054,21.5826093 C17.6255012,22.9296753 16.2408932,23.3364803 13.9999474,23.3333719 C8.8451474,23.3333719 4.66661407,19.1548207 4.66661407,14.0000207 C4.66661407,8.84522072 8.8451474,4.66668739 13.9999474,4.66668739 C19.1547474,4.66668739 23.3332807,8.84522072 23.3332807,14.0000207 C23.3332807,15.9936207 22.7079474,17.8416207 21.6439474,19.3573541 L18.6666141,14.0000207 L21.4666141,14.0000207 C21.4663227,10.4522701 18.9696323,7.39458532 15.4935909,6.68488784 C12.0175495,5.97519037 8.52207596,7.80946522 7.13110261,11.0731637 C5.74012927,14.3368621 6.83777741,18.1287044 9.75709008,20.1446776 C12.6764027,22.1606507 16.1653082,22.2398875 18.9122618,19.938073 L19.4306054,21.5826093 Z" id="Path" fill="currentcolor" transform="translate(13.999947, 14.000030) rotate(-43.000000) translate(-13.999947, -14.000030) "></path>
                <path d="M12.3041333,14.0849333 C12.7420234,14.8542232 13.3791102,15.4913099 14.1484,15.9292 L14.5609333,15.3514667 C14.6982358,15.1592017 14.9575652,15.0998806 15.1648,15.2133333 C15.8248161,15.5740315 16.5536969,15.7909622 17.3035333,15.8498667 C17.5462307,15.8690999 17.7333333,16.0716751 17.7333333,16.3151333 L17.7333333,18.3974 C17.7333333,18.6367411 17.5523594,18.8373206 17.3142667,18.8617333 C17.0669333,18.8874 16.8177333,18.9 16.5666667,18.9 C12.572,18.9 9.33333333,15.6613333 9.33333333,11.6666667 C9.33333333,11.4156 9.34593333,11.1664 9.3716,10.9190667 C9.39601278,10.6809739 9.59659229,10.5 9.83593333,10.5 L11.9182,10.5 C12.1616582,10.5 12.3642335,10.6871027 12.3834667,10.9298 C12.4423711,11.6796365 12.6593018,12.4085172 13.02,13.0685333 C13.1334527,13.2757681 13.0741316,13.5350975 12.8818667,13.6724 L12.3041333,14.0849333 Z" id="Path" fill="currentcolor"></path>
            </g>
        </g>
    </g>
</svg>