<?xml version="1.0" encoding="UTF-8"?>
<svg width="18px" height="18px" viewBox="0 0 18 18" version="1.1" xmlns="http://www.w3.org/2000/svg"
     xmlns:xlink="http://www.w3.org/1999/xlink">
    <desc>Created with sketchtool.</desc>
    <g id="Symbols" stroke="none" stroke-width="1" fill="none" fill-rule="evenodd">
        <g id="toast/status-change/success" transform="translate(-1.000000, -1.000000)">
            <g id="icon/check/circle/line">
                <g>
                    <g id="Group">
                        <polygon id="Path" points="0 0 20 0 20 20 0 20"></polygon>
                        <path d="M10,18.3333333 C5.3975,18.3333333 1.66666667,14.6025 1.66666667,10 C1.66666667,5.3975 5.3975,1.66666667 10,1.66666667 C14.6025,1.66666667 18.3333333,5.3975 18.3333333,10 C18.3333333,14.6025 14.6025,18.3333333 10,18.3333333 Z M10,16.6666667 C13.6818983,16.6666667 16.6666667,13.6818983 16.6666667,10 C16.6666667,6.31810167 13.6818983,3.33333333 10,3.33333333 C6.31810167,3.33333333 3.33333333,6.31810167 3.33333333,10 C3.33333333,13.6818983 6.31810167,16.6666667 10,16.6666667 Z M9.16916667,13.3333333 L5.63333333,9.7975 L6.81166667,8.61916667 L9.16916667,10.9766667 L13.8825,6.2625 L15.0616667,7.44083333 L9.16916667,13.3333333 Z"
                              id="Shape" fill="#37BE84"></path>
                    </g>
                </g>
            </g>
        </g>
    </g>
</svg>