<?xml version="1.0" encoding="UTF-8"?>
<svg width="16px" height="16px" viewBox="0 0 16 16" version="1.1" xmlns="http://www.w3.org/2000/svg"
     xmlns:xlink="http://www.w3.org/1999/xlink">
    <g id="Dispatch" stroke="none" stroke-width="1" fill="none" fill-rule="evenodd">
        <g id="Dispatch/JobDetails/To-be-closed/different-version" transform="translate(-327.000000, -570.000000)">
            <g id="button/secondary" transform="translate(314.000000, 562.000000)">
                <g id="icon/review-and-close-job" transform="translate(12.000000, 7.000000)">
                    <polygon id="Path" points="0 0 18 0 18 18 0 18"></polygon>
                    <path d="M16.5,9.74895832 L15,9.74895832 L15,3.0736061 L3,3.0736061 L3,15.0088867 L9,15.0088867 L9,16.5088867 L2.25,16.5088867 C1.83578644,16.5088867 1.5,16.1731002 1.5,15.7588867 L1.5,2.25 C1.5,1.83578644 1.83578644,1.5 2.25,1.5 L15.75,1.5 C16.1642136,1.5 16.5,1.83578644 16.5,2.25 L16.5,9.74895832 Z M4.5,4.5 L13.5,4.5 L13.5,6 L4.5,6 L4.5,4.5 Z M4.5,8.25 L13.5,8.25 L13.5,9.75 L4.5,9.75 L4.5,8.25 Z M15.9696699,11.4696699 L17.0303301,12.5303301 L12.6459216,16.9147386 L9.96966991,14.2384869 L11.0303301,13.1778267 L12.64575,14.793 L15.9696699,11.4696699 Z M9,12 L9,13.5 L4.5,13.5 L4.5,12 L9,12 Z"
                          id="Shape" fill="currentcolor" fill-rule="evenodd"></path>
                </g>
            </g>
        </g>
    </g>
</svg>