<?xml version="1.0" encoding="UTF-8"?>
<svg width="24px" height="24px" viewBox="0 0 24 24" version="1.1" xmlns="http://www.w3.org/2000/svg"
     xmlns:xlink="http://www.w3.org/1999/xlink">
    <g id="Symbols" stroke="none" stroke-width="1" fill="none" fill-rule="evenodd">
        <g id="icon/dispatch">
            <g id="Group">
                <polygon id="Path" points="0 0 24 0 24 24 0 24"></polygon>
                <path d="M8.68909091,18.1818182 C8.4209729,20.0634499 6.80972905,21.4613792 4.90909091,21.4613792 C3.00845277,21.4613792 1.39720891,20.0634499 1.12909091,18.1818182 L0,18.1818182 L0,5.09090909 C0,4.48841664 0.488416637,4 1.09090909,4 L16.3636364,4 C16.9661288,4 17.4545455,4.48841664 17.4545455,5.09090909 L17.4545455,7.27272727 L20.7272727,7.27272727 L24,11.6974545 L24,18.1818182 L21.78,18.1818182 C21.511882,20.0634499 19.9006381,21.4613792 18,21.4613792 C16.0993619,21.4613792 14.488118,20.0634499 14.22,18.1818182 L8.68909091,18.1818182 Z M15.2727273,6.18181818 L2.18181818,6.18181818 L2.18181818,14.9636364 C3.05543468,14.0717695 4.30989125,13.6633336 5.54113856,13.8698822 C6.77238588,14.0764309 7.8248854,14.8718716 8.35963636,16 L14.5494545,16 C14.7327273,15.6149091 14.9781818,15.2647273 15.2727273,14.9636364 L15.2727273,6.18181818 Z M17.4545455,12.7272727 L21.8181818,12.7272727 L21.8181818,12.4163636 L19.6276364,9.45454545 L17.4545455,9.45454545 L17.4545455,12.7272727 Z M18,19.2727273 C18.9040399,19.2727273 19.6369091,18.5398581 19.6369091,17.6358182 C19.6369091,16.7317783 18.9040399,15.9989091 18,15.9989091 C17.0959601,15.9989091 16.3630909,16.7317783 16.3630909,17.6358182 C16.3630909,18.5398581 17.0959601,19.2727273 18,19.2727273 Z M6.54545455,17.6363636 C6.54545455,17.0517472 6.23356541,16.5115393 5.72727274,16.2192311 C5.22098006,15.9269229 4.59720176,15.9269229 4.09090908,16.2192311 C3.5846164,16.5115393 3.27272727,17.0517472 3.27272727,17.6363636 C3.27272727,18.5401023 4.00535223,19.2727273 4.90909091,19.2727273 C5.81282959,19.2727273 6.54545455,18.5401023 6.54545455,17.6363636 L6.54545455,17.6363636 Z"
                      id="Shape" fill="currentcolor"></path>
            </g>
        </g>
    </g>
</svg>