<?xml version="1.0" encoding="UTF-8"?>
<svg width="32px" height="32px" viewBox="0 0 32 32" version="1.1" xmlns="http://www.w3.org/2000/svg"
     xmlns:xlink="http://www.w3.org/1999/xlink">
    <desc>Created with sketchtool.</desc>
    <g id="Symbols" stroke="none" stroke-width="1" fill="none" fill-rule="evenodd">
        <g id="icon/flowchart" fill="currentColor">
            <g id="flowchart" transform="translate(3.000000, 3.000000)">
                <path d="M19.0290832,7.04014589 L24.984375,7.04014589 C25.5453491,7.04014589 26,6.58549501 26,6.02452089 L26,1.015625 C26,0.454650879 25.5453491,0 24.984375,0 L19.0290832,0 C18.4683075,0 18.0134582,0.454650879 18.0134582,1.015625 L18.0134582,2.50434874 L13,2.50434874 C12.4390259,2.50434874 11.984375,2.95919802 11.984375,3.51997374 L11.984375,11.984375 L8.0234375,11.984375 L8.0234375,9.0051422 C8.0234375,8.44416808 7.56878662,7.9895172 7.0078125,7.9895172 L1.015625,7.9895172 C0.454650879,7.9895172 0,8.44416808 0,9.0051422 L0,16.9946594 C0,17.5556336 0.454650879,18.0102844 1.015625,18.0102844 L7.0078125,18.0102844 C7.56878662,18.0102844 8.0234375,17.5556336 8.0234375,16.9946594 L8.0234375,14.015625 L11.984375,14.015625 L11.984375,22.4800263 C11.984375,23.040802 12.4390259,23.4956513 13,23.4956513 L18.0134582,23.4956513 L18.0134582,24.984375 C18.0134582,25.5453491 18.4683075,26 19.0290832,26 L24.984375,26 C25.5453491,26 26,25.5453491 26,24.984375 L26,19.9754791 C26,19.414505 25.5453491,18.9598541 24.984375,18.9598541 L19.0290832,18.9598541 C18.4683075,18.9598541 18.0134582,19.414505 18.0134582,19.9754791 L18.0134582,21.4644013 L14.015625,21.4644013 L14.015625,14.015625 L18.0134582,14.015625 L18.0134582,15.5043487 C18.0134582,16.0653229 18.4683075,16.5199737 19.0290832,16.5199737 L24.984375,16.5199737 C25.5453491,16.5199737 26,16.0653229 26,15.5043487 L26,10.4956513 C26,9.93467714 25.5453491,9.48002626 24.984375,9.48002626 L19.0290832,9.48002626 C18.4683075,9.48002626 18.0134582,9.93467714 18.0134582,10.4956513 L18.0134582,11.984375 L14.015625,11.984375 L14.015625,4.53559874 L18.0134582,4.53559874 L18.0134582,6.02452089 C18.0134582,6.58549501 18.4683075,7.04014589 19.0290832,7.04014589 Z M5.9921875,15.9792328 L2.03125,15.9792328 L2.03125,10.0207672 L5.9921875,10.0207672 L5.9921875,15.9792328 Z M20.0447082,20.9911041 L23.96875,20.9911041 L23.96875,23.96875 L20.0447082,23.96875 L20.0447082,20.9911041 Z M20.0447082,11.5112763 L23.96875,11.5112763 L23.96875,14.4887237 L20.0447082,14.4887237 L20.0447082,11.5112763 Z M20.0447082,2.03125 L23.96875,2.03125 L23.96875,5.00889589 L20.0447082,5.00889589 L20.0447082,2.03125 Z"
                      id="Shape"></path>
            </g>
        </g>
    </g>
</svg>