<?xml version="1.0" encoding="UTF-8"?>
<svg width="24px" height="24px" viewBox="0 0 24 24" version="1.1" xmlns="http://www.w3.org/2000/svg"
     xmlns:xlink="http://www.w3.org/1999/xlink">
    <desc>Created with Sketch.</desc>
    <g id="icon/uploading-img" stroke="none" stroke-width="1" fill="none" fill-rule="evenodd">
        <g id="Group">
            <polygon id="Path" points="0 0 24 0 24 24 0 24"></polygon>
            <path d="M12,2 C12.5522847,2 13,2.44771525 13,3 L13,6 C13,6.55228475 12.5522847,7 12,7 C11.4477153,7 11,6.55228475 11,6 L11,3 C11,2.44771525 11.4477153,2 12,2 Z M12,17 C12.5522847,17 13,17.4477153 13,18 L13,21 C13,21.5522847 12.5522847,22 12,22 C11.4477153,22 11,21.5522847 11,21 L11,18 C11,17.4477153 11.4477153,17 12,17 Z M20.66,7 C20.9361293,7.47828031 20.7722682,8.08984962 20.294,8.366 L17.696,9.866 C17.3864296,10.0474844 17.0033505,10.0491833 16.6921826,9.87045186 C16.3810146,9.69172041 16.189469,9.35996339 16.1902555,9.0011183 C16.1910468,8.64227321 16.3840492,8.31136158 16.696,8.134 L19.294,6.634 C19.7722803,6.35787066 20.3838496,6.52173184 20.66,7 Z M7.67,14.5 C7.94612934,14.9782803 7.78226816,15.5898496 7.304,15.866 L4.706,17.366 C4.39642958,17.5474844 4.01335053,17.5491833 3.70218258,17.3704519 C3.39101463,17.1917204 3.19946901,16.8599634 3.20025547,16.5011183 C3.20104678,16.1422732 3.39404922,15.8113616 3.706,15.634 L6.304,14.134 C6.78228031,13.8578707 7.39384962,14.0217318 7.67,14.5 Z M20.66,17 C20.3838496,17.4782682 19.7722803,17.6421293 19.294,17.366 L16.696,15.866 C16.2217864,15.5879942 16.0608714,14.979353 16.3357255,14.5033057 C16.6105795,14.0272584 17.21814,13.8623097 17.696,14.134 L20.294,15.634 C20.7722682,15.9101504 20.9361293,16.5217197 20.66,17 Z M7.67,9.5 C7.39384962,9.97826816 6.78228031,10.1421293 6.304,9.866 L3.706,8.366 C3.39404922,8.18863842 3.20104678,7.85772679 3.20025547,7.4988817 C3.19946901,7.14003661 3.39101463,6.80827959 3.70218258,6.62954814 C4.01335053,6.45081669 4.39642958,6.45251562 4.706,6.634 L7.304,8.134 C7.78226816,8.41015038 7.94612934,9.02171969 7.67,9.5 Z"
                  id="Shape" fill="#C5C5C5" fill-rule="nonzero"></path>
            <path d="M7.67,9.5 C7.39384962,9.97826816 6.78228031,10.1421293 6.304,9.866 L3.706,8.366 C3.39404922,8.18863842 3.20104678,7.85772679 3.20025547,7.4988817 C3.19946901,7.14003661 3.39101463,6.80827959 3.70218258,6.62954814 C4.01335053,6.45081669 4.39642958,6.45251562 4.706,6.634 L7.304,8.134 C7.78226816,8.41015038 7.94612934,9.02171969 7.67,9.5 Z"
                  id="Path" fill="#666666" fill-rule="nonzero"></path>
        </g>
    </g>
</svg>