<?xml version="1.0" encoding="UTF-8"?>
<svg width="16px" height="16px" viewBox="0 0 16 16" version="1.1" xmlns="http://www.w3.org/2000/svg">
    <g id="04_Opportunity-Management" stroke="none" stroke-width="1" fill="none" fill-rule="evenodd">
        <g id="v4_call-handling_opp-history-list" transform="translate(-152.000000, -70.000000)" fill="currentColor">
            <g id="header/Tabs" transform="translate(0.000000, 56.000000)">
                <g id="Call-Tab" transform="translate(128.000000, 0.000000)">
                    <g id="Group-4" transform="translate(24.000000, 14.000000)">
                        <path d="M16,2.10080021e-08 L16,7.11111113 L14.2222222,7.11111113 L14.2218588,3.03400002 L9.66993747,7.58714127 L8.41285875,6.33006255 L12.9648588,1.77700002 L8.88888889,1.7777778 L8.88888889,2.10080021e-08 L16,2.10080021e-08 Z" id="Combined-Shape"></path>
                        <path d="M5.65866667,6.82844447 C6.49274302,8.29375844 7.70624158,9.50725701 9.17155556,10.3413334 L9.95733333,9.24088891 C10.2188618,8.87466995 10.7128226,8.76167737 11.1075556,8.9777778 C12.3647291,9.66482194 13.7530734,10.0780233 15.1813333,10.1902222 C15.643614,10.2268569 16,10.6127145 16,11.0764445 L16,15.0426667 C16,15.4985544 15.6552878,15.8806106 15.2017778,15.9271111 C14.7306667,15.976 14.256,16 13.7777778,16 C6.16888889,16 0,9.83111113 0,2.22222224 C0,1.74400002 0.024,1.26933335 0.0728888889,0.798222243 C0.119389424,0.344712266 0.50144564,0 0.957333333,0 L4.92355556,0 C5.38728555,0 5.77314311,0.356386026 5.80977778,0.818666688 C5.92197677,2.24692662 6.33517808,3.6352709 7.02222222,4.89244447 C7.23832265,5.2871774 7.12533007,5.78113819 6.75911111,6.04266669 L5.65866667,6.82844447 Z M3.41688889,6.24444447 L5.10577778,5.03822224 C4.62647342,4.00363868 4.29809052,2.90563642 4.13066667,1.7777778 L1.78666667,1.7777778 C1.78133333,1.92533335 1.77866667,2.0737778 1.77866667,2.22222224 C1.77777778,8.8497778 7.15022222,14.2222222 13.7777778,14.2222222 C13.9262222,14.2222222 14.0746667,14.2195556 14.2222222,14.2133334 L14.2222222,11.8693334 C13.0943636,11.7019095 11.9963613,11.3735266 10.9617778,10.8942222 L9.75555556,12.5831111 C9.26992137,12.3944149 8.79822812,12.1716378 8.344,11.9164445 L8.29244444,11.8871111 C6.54895883,10.8948618 5.10513825,9.45104119 4.11288889,7.70755558 L4.08355556,7.65600002 C3.82836219,7.2017719 3.60558515,6.73007865 3.41688889,6.24444447 L3.41688889,6.24444447 Z" id="Shape" fill-rule="nonzero"></path>
                    </g>
                </g>
            </g>
        </g>
    </g>
</svg>