<?xml version="1.0" encoding="UTF-8"?>
<svg width="24px" height="24px" viewBox="0 0 24 24" version="1.1" xmlns="http://www.w3.org/2000/svg"
     xmlns:xlink="http://www.w3.org/1999/xlink">
    <desc>Created with sketchtool.</desc>
    <g id="Symbols" stroke="none" stroke-width="1" fill="none" fill-rule="evenodd">
        <g id="icon/phone-call">
            <g id="Group">
                <polygon id="Path" points="0 0 24 0 24 24 0 24"></polygon>
                <path d="M8.539,2.99999998 C9.06069624,2.99999998 9.494786,3.40093426 9.536,3.921 C9.66222386,5.52779242 10.1270753,7.08967973 10.9,8.504 C11.143113,8.94807455 11.0159963,9.50378044 10.604,9.798 L9.366,10.682 C10.3043359,12.3304782 11.6695218,13.6956641 13.318,14.634 L14.202,13.396 C14.4962196,12.9840037 15.0519254,12.856887 15.496,13.1 C16.9103203,13.8729247 18.4722076,14.3377761 20.079,14.464 C20.5990657,14.505214 21,14.9393038 21,15.461 L21,19.923 C21,20.4358737 20.6121987,20.8656869 20.102,20.918 C19.572,20.973 19.038,21 18.5,21 C9.94,21 3,14.06 3,5.49999998 C3,4.962 3.027,4.428 3.082,3.898 C3.1343131,3.38780128 3.56412634,2.99999998 4.077,2.99999998 L8.539,2.99999998 Z M7.647,5 L5.01,5 C5.004,5.166 5.001,5.333 5.001,5.5 C5,12.956 11.044,19 18.5,19 C18.667,19 18.834,18.997 19,18.99 L19,16.353 C17.7311591,16.1646482 16.4959065,15.7952174 15.332,15.256 L13.975,17.156 C13.4286615,16.9437167 12.8980066,16.6930925 12.387,16.406 L12.329,16.373 C10.3675787,15.2567195 8.74328053,13.6324213 7.627,11.671 L7.594,11.613 C7.30690747,11.1019934 7.0562833,10.5713385 6.844,10.025 L8.744,8.668 C8.2047826,7.50409349 7.83535183,6.26884095 7.647,5 Z"
                      id="Shape" fill="currentColor" fill-rule="nonzero"></path>
            </g>
        </g>
    </g>
</svg>