<?xml version="1.0" encoding="UTF-8"?>
<svg width="32px" height="32px" viewBox="0 0 32 32" version="1.1" xmlns="http://www.w3.org/2000/svg"
     xmlns:xlink="http://www.w3.org/1999/xlink">
    <desc>Created with sketchtool.</desc>
    <g id="Symbols" stroke="none" stroke-width="1" fill="none" fill-rule="evenodd">
        <g id="icon/record">
            <g id="Group">
                <polygon id="Path" points="0 0 32 0 32 32 0 32"></polygon>
                <path d="M2.66666667,5.324 C2.67174376,4.59540739 3.26074621,4.00581119 3.98933333,4 L28.0106667,4 C28.7413333,4 29.3333333,4.59333333 29.3333333,5.324 L29.3333333,26.676 C29.3282562,27.4045926 28.7392538,27.9941888 28.0106667,28 L3.98933333,28 C3.25862908,27.9992641 2.66666667,27.4067046 2.66666667,26.676 L2.66666667,5.324 Z M5.33333333,6.66666667 L5.33333333,25.3333333 L26.6666667,25.3333333 L26.6666667,6.66666667 L5.33333333,6.66666667 Z M8,9.33333333 L16,9.33333333 L16,17.3333333 L8,17.3333333 L8,9.33333333 Z M10.6666667,12 L10.6666667,14.6666667 L13.3333333,14.6666667 L13.3333333,12 L10.6666667,12 Z M8,20 L24,20 L24,22.6666667 L8,22.6666667 L8,20 Z M18.6666667,9.33333333 L24,9.33333333 L24,12 L18.6666667,12 L18.6666667,9.33333333 Z M18.6666667,14.6666667 L24,14.6666667 L24,17.3333333 L18.6666667,17.3333333 L18.6666667,14.6666667 Z"
                      id="Shape" fill="currentColor"></path>
            </g>
        </g>
    </g>
</svg>