<?xml version="1.0" encoding="UTF-8"?>
<svg width="11px" height="10px" viewBox="0 0 11 10" version="1.1" xmlns="http://www.w3.org/2000/svg"
     xmlns:xlink="http://www.w3.org/1999/xlink">
    <g id="Dispatch" stroke="none" stroke-width="1" fill="none" fill-rule="evenodd">
        <g id="Dispatch/JobDetails/To-be-reviewed/reopen" transform="translate(-326.000000, -525.000000)">
            <g id="job-level-operation" transform="translate(112.000000, 406.000000)">
                <g id="drop-down" transform="translate(30.000000, 10.000000)">
                    <g id="Group-13" transform="translate(12.000000, 16.000000)">
                        <g id="actions" transform="translate(0.000000, 26.000000)">
                            <g id="folder-open-line" transform="translate(171.000000, 66.000000)">
                                <polygon id="Path" points="0 0 12 0 12 12 0 12"></polygon>
                                <path d="M1.5,10.5 C1.22385763,10.5 1,10.2761424 1,10 L1,2 C1,1.72385763 1.22385763,1.5 1.5,1.5 L5.207,1.5 L6.207,2.5 L10,2.5 C10.2761424,2.5 10.5,2.72385763 10.5,3 L10.5,4.5 L9.5,4.5 L9.5,3.5 L5.793,3.5 L4.793,2.5 L2,2.5 L2,8.499 L2.75,5.5 L11.25,5.5 L10.095,10.1215 C10.0392705,10.3439655 9.83933969,10.5 9.61,10.5 L1.5,10.5 L1.5,10.5 Z M9.969,6.5 L3.531,6.5 L2.781,9.5 L9.219,9.5 L9.969,6.5 Z"
                                      id="Shape" fill="currentColor" fill-rule="nonzero"></path>
                            </g>
                        </g>
                    </g>
                </g>
            </g>
        </g>
    </g>
</svg>