<?xml version="1.0" encoding="UTF-8"?>
<svg width="16px" height="17px" viewBox="0 0 16 17" version="1.1" xmlns="http://www.w3.org/2000/svg"
     xmlns:xlink="http://www.w3.org/1999/xlink">
    <g id="Dispatch" stroke="none" stroke-width="1" fill="none" fill-rule="evenodd">
        <g id="Dispatch/JobDetails/To-be-closed/different-version" transform="translate(-438.000000, -670.000000)">
            <g id="button/secondary" transform="translate(425.000000, 662.000000)">
                <g id="icon/review-job" transform="translate(12.000000, 7.000000)">
                    <polygon id="Path" points="0 0 18 0 18 18 0 18"></polygon>
                    <path d="M16.5,9.74895832 L15,9.74895832 L15,3.0736061 L3,3.0736061 L3,15.0088867 L9,15.0088867 L9,16.5088867 L2.25,16.5088867 C1.83578644,16.5088867 1.5,16.1731002 1.5,15.7588867 L1.5,2.25 C1.5,1.83578644 1.83578644,1.5 2.25,1.5 L15.75,1.5 C16.1642136,1.5 16.5,1.83578644 16.5,2.25 L16.5,9.74895832 Z M4.5,4.5 L13.5,4.5 L13.5,6 L4.5,6 L4.5,4.5 Z M4.5,8.25 L13.5,8.25 L13.5,9.75 L4.5,9.75 L4.5,8.25 Z M15.0909903,11.5983496 C16.079295,12.5866543 16.2338946,14.0929569 15.5547893,15.2433216 L16.6819805,16.3713203 L15.6213203,17.4319805 L14.4939917,16.3043936 C13.3435419,16.9839547 11.8368462,16.8294869 10.8483496,15.8409903 C9.6767767,14.6694174 9.6767767,12.7699224 10.8483496,11.5983496 C12.0199224,10.4267767 13.9194174,10.4267767 15.0909903,11.5983496 Z M11.9090097,12.6590097 C11.3232233,13.2447962 11.3232233,14.1945436 11.9090097,14.7803301 C12.3671004,15.2384208 13.0604823,15.3452866 13.6265489,15.0691521 L13.7311058,15.0128808 L14.0653319,14.8153319 L14.2630772,14.4807733 C14.5869993,13.9320683 14.5260707,13.2335332 14.1120825,12.7475519 L14.0303301,12.6590097 C13.4445436,12.0732233 12.4947962,12.0732233 11.9090097,12.6590097 Z M9,12 L9,13.5 L4.5,13.5 L4.5,12 L9,12 Z"
                          id="Shape" fill="currentcolor" fill-rule="evenodd"></path>
                </g>
            </g>
        </g>
    </g>
</svg>