<?xml version="1.0" encoding="UTF-8"?>
<svg width="24px" height="24px" viewBox="0 0 24 24" version="1.1" xmlns="http://www.w3.org/2000/svg"
     xmlns:xlink="http://www.w3.org/1999/xlink">
    <!-- Generator: Sketch 62 (91390) - https://sketch.com -->
    <title>icon/right</title>
    <desc>Created with Sketch.</desc>
    <g id="icon/right" stroke="none" stroke-width="1" fill="none" fill-rule="evenodd">
        <path d="M12,24 C5.37243402,24 0,18.627566 0,12 C0,5.37243402 5.37243402,0 12,0 C18.627566,0 24,5.37243402 24,12 C24,18.627566 18.627566,24 12,24 L12,24 Z M19.2539589,15.1812317 L9.5085044,5.69618768 C9.21524927,5.40293255 8.73900293,5.40293255 8.4457478,5.69618768 L4.72258065,9.25513196 C4.42932551,9.5483871 4.42932551,10.0246334 4.72258065,10.3178886 L4.72258065,10.3178886 C5.01583578,10.6111437 5.49208211,10.6111437 5.78533724,10.3178886 L8.97829912,7.28914956 L18.1912023,16.2439883 C18.4844575,16.5372434 18.9607038,16.5372434 19.2539589,16.2439883 L19.2539589,16.2439883 C19.5472141,15.9507331 19.5472141,15.4744868 19.2539589,15.1812317 L19.2539589,15.1812317 Z"
              id="Shape" fill="#52C41A"
              transform="translate(12.000000, 12.000000) scale(1, -1) translate(-12.000000, -12.000000) "></path>
    </g>
</svg>