<?xml version="1.0" encoding="UTF-8"?>
<svg width="32px" height="32px" viewBox="0 0 32 32" version="1.1" xmlns="http://www.w3.org/2000/svg"
     xmlns:xlink="http://www.w3.org/1999/xlink">
    <desc>Created with sketchtool.</desc>
    <g id="Symbols" stroke="none" stroke-width="1" fill="none" fill-rule="evenodd">
        <g id="icon/tools">
            <g id="Group">
                <polygon id="Path" points="0 0 32 0 32 32 0 32"></polygon>
                <path d="M7.10666667,4.36133333 C8.80503134,3.75545013 10.7004838,4.18224731 11.975255,5.45758862 C13.2500262,6.73292992 13.6759759,8.62857307 13.0693333,10.3266667 L27.5293333,24.7866667 L24.7,27.6146667 L10.24,13.156 C8.54163533,13.7618832 6.64618282,13.335086 5.37141163,12.0597447 C4.09664044,10.7844034 3.6706908,8.88876026 4.27733333,7.19066667 L7.25866667,10.1733333 C7.76081561,10.6932465 8.50442245,10.9017585 9.20368131,10.7187276 C9.90294018,10.5356968 10.4490301,9.98960684 10.632061,9.29034798 C10.8150919,8.59108912 10.6065798,7.84748227 10.0866667,7.34533333 L7.10533333,4.36 L7.10666667,4.36133333 Z M20.9293333,6.87333333 L25.172,4.516 L27.0573333,6.40133333 L24.7,10.644 L22.3426667,11.116 L19.516,13.944 L17.6293333,12.0586667 L20.4573333,9.23066667 L20.9293333,6.87333333 Z M11.5013333,17.244 L14.3293333,20.0733333 L7.72933333,26.6733333 C6.97353983,27.4220538 5.76388021,27.4480619 4.97660443,26.7325181 C4.18932866,26.0169743 4.10000318,24.8103369 4.77333333,23.9866667 L4.90266667,23.844 L11.5026667,17.244 L11.5013333,17.244 Z"
                      id="Shape" fill="currentColor"></path>
            </g>
        </g>
    </g>
</svg>