<?xml version="1.0" encoding="UTF-8"?>
<svg width="15px" height="16px" viewBox="0 0 15 16" version="1.1" xmlns="http://www.w3.org/2000/svg"
     xmlns:xlink="http://www.w3.org/1999/xlink">
    <g id="Dispatch" stroke="none" stroke-width="1" fill="none" fill-rule="evenodd">
        <g id="Dispatch/Unassign" transform="translate(-253.000000, -831.000000)">
            <g id="Group-6" transform="translate(253.000000, 831.000000)">
                <g id="button/text&amp;icon/1.edit/1.small">
                    <g id="Group-8">
                        <g id="icon/calendar" transform="translate(0.000000, 2.000000)">
                            <g id="calendar-2-line">
                                <polygon id="Path1" points="0 0 14 0 14 14 0 14"></polygon>
                                <path d="M9.91666667,1.75 L12.25,1.75 C12.5721661,1.75 12.8333333,2.01116723 12.8333333,2.33333333 L12.8333333,11.6666667 C12.8333333,11.9888328 12.5721661,12.25 12.25,12.25 L1.75,12.25 C1.4278339,12.25 1.16666667,11.9888328 1.16666667,11.6666667 L1.16666667,2.33333333 C1.16666667,2.01116723 1.4278339,1.75 1.75,1.75 L4.08333333,1.75 L4.08333333,0.583333333 L5.25,0.583333333 L5.25,1.75 L8.75,1.75 L8.75,0.583333333 L9.91666667,0.583333333 L9.91666667,1.75 Z M11.6666667,6.41666667 L2.33333333,6.41666667 L2.33333333,11.0833333 L11.6666667,11.0833333 L11.6666667,6.41666667 Z M8.75,2.91666667 L5.25,2.91666667 L5.25,4.08333333 L4.08333333,4.08333333 L4.08333333,2.91666667 L2.33333333,2.91666667 L2.33333333,5.25 L11.6666667,5.25 L11.6666667,2.91666667 L9.91666667,2.91666667 L9.91666667,4.08333333 L8.75,4.08333333 L8.75,2.91666667 Z M3.5,7.58333333 L4.66666667,7.58333333 L4.66666667,8.75 L3.5,8.75 L3.5,7.58333333 Z M6.41666667,7.58333333 L7.58333333,7.58333333 L7.58333333,8.75 L6.41666667,8.75 L6.41666667,7.58333333 Z M9.33333333,7.58333333 L10.5,7.58333333 L10.5,8.75 L9.33333333,8.75 L9.33333333,7.58333333 Z"
                                      id="Shape" fill="#1D3BE6" fill-rule="nonzero"></path>
                            </g>
                        </g>
                        <g id="Group-3" transform="translate(7.000000, 0.000000)">
                            <rect id="Rectangle1" fill="#FFFFFF" x="2" y="2" width="4" height="4"></rect>
                            <g id="icon/cross/filled">
                                <g id="Group">
                                    <polygon id="Path2" points="0 0 8 0 8 8 0 8"></polygon>
                                    <path d="M4,7.33333333 C2.159,7.33333333 0.666666667,5.841 0.666666667,4 C0.666666667,2.159 2.159,0.666666667 4,0.666666667 C5.841,0.666666667 7.33333333,2.159 7.33333333,4 C7.33333333,5.841 5.841,7.33333333 4,7.33333333 Z M4,3.52866667 L3.05733333,2.58566667 L2.58566667,3.05733333 L3.52866667,4 L2.58566667,4.94266667 L3.05733333,5.41433333 L4,4.47133333 L4.94266667,5.41433333 L5.41433333,4.94266667 L4.47133333,4 L5.41433333,3.05733333 L4.94266667,2.58566667 L4,3.52866667 Z"
                                          id="Shape" fill="#1D3BE6" fill-rule="nonzero"></path>
                                </g>
                            </g>
                        </g>
                    </g>
                </g>
            </g>
        </g>
    </g>
</svg>