<?xml version="1.0" encoding="UTF-8"?>
<svg width="16px" height="16px" viewBox="0 0 16 16" version="1.1" xmlns="http://www.w3.org/2000/svg">
    <g id="Dispatch" stroke="none" stroke-width="1" fill="none" fill-rule="evenodd">
        <g id="Dispatch/multiple-assignments" transform="translate(-242.000000, -755.000000)">
            <g id="Group-3" transform="translate(0.000000, 428.000000)">
                <g id="Dispatch/JobDetails" transform="translate(0.000000, 17.000000)">
                    <g id="3---assignments" transform="translate(16.000000, 267.000000)">
                        <g id="assignment1" transform="translate(8.000000, 33.000000)">
                            <g id="user-add-fill" transform="translate(218.000000, 10.000000)">
                                <path d="M2,0 L14,0 C15.1045695,-2.02906125e-16 16,0.8954305 16,2 L16,14 C16,15.1045695 15.1045695,16 14,16 L2,16 C0.8954305,16 1.3527075e-16,15.1045695 0,14 L0,2 C-1.3527075e-16,0.8954305 0.8954305,2.02906125e-16 2,0 Z"
                                      id="Path" fill="#F5EBFF"></path>
                                <path d="M8.08051712,10.2558403 L8.08051712,11.5259696 C5.97609803,11.5259696 4.27012928,13.2319384 4.27012928,15.3363575 L3,15.3363575 C3,12.5304653 5.274625,10.2558403 8.08051712,10.2558403 L8.08051712,10.2558403 Z M8.08051712,9.62077569 C5.97527784,9.62077569 4.27012928,7.91562713 4.27012928,5.81038784 C4.27012928,3.70514856 5.97527784,2 8.08051712,2 C10.1857564,2 11.890905,3.70514856 11.890905,5.81038784 C11.890905,7.91562713 10.1857564,9.62077569 8.08051712,9.62077569 Z M8.08051712,8.35064641 C9.48400998,8.35064641 10.6207757,7.2138807 10.6207757,5.81038784 C10.6207757,4.40689499 9.48400998,3.27012928 8.08051712,3.27012928 C6.67702427,3.27012928 5.54025856,4.40689499 5.54025856,5.81038784 C5.54025856,7.2138807 6.67702427,8.35064641 8.08051712,8.35064641 Z M11.890905,15.0188251 L10.02445,16 L10.3807213,13.9220685 L8.8711726,12.4499887 L10.957995,12.1464278 L11.890905,10.2558403 L12.82445,12.1464278 L14.9106373,12.4499887 L13.4010887,13.9220685 L13.7567249,16 L11.890905,15.0188251 Z"
                                      id="Shape" fill="#D40101" fill-rule="nonzero"></path>
                            </g>
                        </g>
                    </g>
                </g>
            </g>
        </g>
    </g>
</svg>