<?xml version="1.0" encoding="UTF-8"?>
<svg width="16px" height="16px" viewBox="0 0 16 16" version="1.1" xmlns="http://www.w3.org/2000/svg">
    <g id="Dispatch" stroke="none" stroke-width="1" fill="none" fill-rule="evenodd">
        <g id="Dispatch/multiple-assignments" transform="translate(-242.000000, -798.000000)">
            <g id="Group-3" transform="translate(0.000000, 428.000000)">
                <g id="Dispatch/JobDetails" transform="translate(0.000000, 17.000000)">
                    <g id="3---assignments" transform="translate(16.000000, 267.000000)">
                        <g id="assignment1" transform="translate(8.000000, 76.000000)">
                            <g id="user-add-fill" transform="translate(218.000000, 10.000000)">
                                <path d="M2,0 L14,0 C15.1045695,-2.02906125e-16 16,0.8954305 16,2 L16,14 C16,15.1045695 15.1045695,16 14,16 L2,16 C0.8954305,16 1.3527075e-16,15.1045695 0,14 L0,2 C-1.3527075e-16,0.8954305 0.8954305,2.02906125e-16 2,0 Z"
                                      id="Path" fill="#D8E8F0"></path>
                                <path d="M1,16 C1,13.0544813 3.38781467,10.6666667 6.33333333,10.6666667 C9.278852,10.6666667 11.6666667,13.0544813 11.6666667,16 L10.3333333,16 C10.3333333,13.790861 8.54247233,12 6.33333333,12 C4.12419433,12 2.33333333,13.790861 2.33333333,16 L1,16 L1,16 Z M6.33333333,10 C4.12333333,10 2.33333333,8.21 2.33333333,6 C2.33333333,3.79 4.12333333,2 6.33333333,2 C8.54333333,2 10.3333333,3.79 10.3333333,6 C10.3333333,8.21 8.54333333,10 6.33333333,10 Z M6.33333333,8.66666667 C7.80666667,8.66666667 9,7.47333333 9,6 C9,4.52666667 7.80666667,3.33333333 6.33333333,3.33333333 C4.86,3.33333333 3.66666667,4.52666667 3.66666667,6 C3.66666667,7.47333333 4.86,8.66666667 6.33333333,8.66666667 Z M11.856,11.1353333 C13.7697166,11.9972192 15.0002157,13.9011531 15,16 L13.6666667,16 C13.6669788,14.4257794 12.7440668,12.9977055 11.3086667,12.3513333 L11.8553333,11.1353333 L11.856,11.1353333 Z M11.3973333,3.60866667 C12.7710339,4.17490075 13.6672186,5.51417567 13.6666669,7 C13.6672485,8.89620465 12.2217149,10.4799313 10.3333333,10.652 L10.3333333,9.31 C11.3473432,9.16477053 12.148054,8.3751709 12.307438,7.3632893 C12.466822,6.3514077 11.9476025,5.35390257 11.0273333,4.904 L11.3973333,3.60866667 L11.3973333,3.60866667 Z"
                                      id="Shape" fill="#0170AC" fill-rule="nonzero"></path>
                            </g>
                        </g>
                    </g>
                </g>
            </g>
        </g>
    </g>
</svg>